<?xml version="1.0" encoding="us-ascii" standalone="no"?><svg xmlns="http://www.w3.org/2000/svg" xmlns:xlink="http://www.w3.org/1999/xlink" contentStyleType="text/css" height="1214.0625px" preserveAspectRatio="none" style="width:1340px;height:1214px;background:#FFFFFF;" version="1.1" viewBox="0 0 1340 1214" width="1340.625px" zoomAndPan="magnify"><defs/><g><text fill="#000000" font-family="Arial" font-size="21.875" font-weight="bold" lengthAdjust="spacing" textLength="721.875" x="307.0313" y="43.956">Diagramme de S&#233;quence &#8212; Validation des pr&#233;sences (Formateur)</text><rect fill="none" height="68.1213" style="stroke:#000000;stroke-width:2.34375;" width="482.0313" x="15.625" y="511.3876"/><line style="stroke:#181818;stroke-width:0.78125;stroke-dasharray:5.0,5.0;" x1="79.6875" x2="79.6875" y1="181.0898" y2="1092.6102"/><line style="stroke:#181818;stroke-width:0.78125;stroke-dasharray:5.0,5.0;" x1="432.0313" x2="432.0313" y1="181.0898" y2="1092.6102"/><line style="stroke:#181818;stroke-width:0.78125;stroke-dasharray:5.0,5.0;" x1="870.3125" x2="870.3125" y1="181.0898" y2="1092.6102"/><line style="stroke:#181818;stroke-width:0.78125;stroke-dasharray:5.0,5.0;" x1="1161.7188" x2="1161.7188" y1="181.0898" y2="1092.6102"/><text fill="#000000" font-family="Arial" font-size="18.75" lengthAdjust="spacing" textLength="89.0625" x="31.25" y="177.1164">Formateur</text><ellipse cx="80.4688" cy="79.0604" fill="#E2E2F0" rx="12.5" ry="12.5" style="stroke:#181818;stroke-width:0.78125;"/><path d="M80.4688,91.5604 L80.4688,133.7479 M60.1563,104.0604 L100.7813,104.0604 M80.4688,133.7479 L60.1563,157.1854 M80.4688,133.7479 L100.7813,157.1854 " fill="none" style="stroke:#181818;stroke-width:0.78125;"/><text fill="#000000" font-family="Arial" font-size="18.75" lengthAdjust="spacing" textLength="89.0625" x="31.25" y="1108.6349">Formateur</text><ellipse cx="80.4688" cy="1125.8896" fill="#E2E2F0" rx="12.5" ry="12.5" style="stroke:#181818;stroke-width:0.78125;"/><path d="M80.4688,1138.3896 L80.4688,1180.5771 M60.1563,1150.8896 L100.7813,1150.8896 M80.4688,1180.5771 L60.1563,1204.0146 M80.4688,1180.5771 L100.7813,1204.0146 " fill="none" style="stroke:#181818;stroke-width:0.78125;"/><rect fill="#E2E2F0" height="64.9963" rx="3.9063" ry="3.9063" style="stroke:#000000;stroke-width:0.78125;" width="100" x="382.0313" y="114.5309"/><text fill="#000000" font-family="Arial" font-size="18.75" lengthAdjust="spacing" textLength="76.5625" x="393.75" y="143.0557">Frontend</text><text fill="#000000" font-family="Arial" font-size="18.75" lengthAdjust="spacing" textLength="78.125" x="392.9688" y="164.6164">(Angular)</text><rect fill="#E2E2F0" height="64.9963" rx="3.9063" ry="3.9063" style="stroke:#000000;stroke-width:0.78125;" width="100" x="382.0313" y="1091.0477"/><text fill="#000000" font-family="Arial" font-size="18.75" lengthAdjust="spacing" textLength="76.5625" x="393.75" y="1119.5724">Frontend</text><text fill="#000000" font-family="Arial" font-size="18.75" lengthAdjust="spacing" textLength="78.125" x="392.9688" y="1141.1331">(Angular)</text><rect fill="#E2E2F0" height="64.9963" rx="3.9063" ry="3.9063" style="stroke:#000000;stroke-width:0.78125;" width="104.6875" x="818.75" y="114.5309"/><text fill="#000000" font-family="Arial" font-size="18.75" lengthAdjust="spacing" textLength="75" x="833.5938" y="143.0557">Backend</text><text fill="#000000" font-family="Arial" font-size="18.75" lengthAdjust="spacing" textLength="82.8125" x="829.6875" y="164.6164">(Express)</text><rect fill="#E2E2F0" height="64.9963" rx="3.9063" ry="3.9063" style="stroke:#000000;stroke-width:0.78125;" width="104.6875" x="818.75" y="1091.0477"/><text fill="#000000" font-family="Arial" font-size="18.75" lengthAdjust="spacing" textLength="75" x="833.5938" y="1119.5724">Backend</text><text fill="#000000" font-family="Arial" font-size="18.75" lengthAdjust="spacing" textLength="82.8125" x="829.6875" y="1141.1331">(Express)</text><rect fill="#E2E2F0" height="64.9963" rx="3.9063" ry="3.9063" style="stroke:#000000;stroke-width:0.78125;" width="175" x="1074.2188" y="114.5309"/><text fill="#000000" font-family="Arial" font-size="18.75" lengthAdjust="spacing" textLength="153.125" x="1085.1563" y="143.0557">Base de donn&#233;es</text><text fill="#000000" font-family="Arial" font-size="18.75" lengthAdjust="spacing" textLength="71.875" x="1125.7813" y="164.6164">(MySQL)</text><rect fill="#E2E2F0" height="64.9963" rx="3.9063" ry="3.9063" style="stroke:#000000;stroke-width:0.78125;" width="175" x="1074.2188" y="1091.0477"/><text fill="#000000" font-family="Arial" font-size="18.75" lengthAdjust="spacing" textLength="153.125" x="1085.1563" y="1119.5724">Base de donn&#233;es</text><text fill="#000000" font-family="Arial" font-size="18.75" lengthAdjust="spacing" textLength="71.875" x="1125.7813" y="1141.1331">(MySQL)</text><polygon fill="#181818" points="413.2813,242.9611,428.9063,249.2111,413.2813,255.4611,419.5313,249.2111" style="stroke:#181818;stroke-width:1.5625;"/><line style="stroke:#181818;stroke-width:1.5625;" x1="80.4688" x2="422.6563" y1="249.2111" y2="249.2111"/><text fill="#000000" font-family="Arial" font-size="18.75" lengthAdjust="spacing" textLength="173.4375" x="91.4063" y="220.5521">Acc&#233;der &#224; la s&#233;ance</text><text fill="#000000" font-family="Arial" font-size="18.75" lengthAdjust="spacing" textLength="251.5625" x="91.4063" y="242.1127">et cliquer "Valider pr&#233;sences"</text><polygon fill="#181818" points="852.3438,286.3968,867.9688,292.6468,852.3438,298.8968,858.5938,292.6468" style="stroke:#181818;stroke-width:1.5625;"/><line style="stroke:#181818;stroke-width:1.5625;" x1="432.0313" x2="861.7188" y1="292.6468" y2="292.6468"/><text fill="#000000" font-family="Arial" font-size="18.75" lengthAdjust="spacing" textLength="328.125" x="442.9688" y="285.5484">GET /api/seances/{seance_id}/inscrits</text><polygon fill="#181818" points="1142.9688,351.3931,1158.5938,357.6431,1142.9688,363.8931,1149.2188,357.6431" style="stroke:#181818;stroke-width:1.5625;"/><line style="stroke:#181818;stroke-width:1.5625;" x1="871.0938" x2="1152.3438" y1="357.6431" y2="357.6431"/><text fill="#000000" font-family="Arial" font-size="18.75" lengthAdjust="spacing" textLength="235.9375" x="882.0313" y="328.9841">R&#233;cup&#233;rer liste des inscrits</text><text fill="#000000" font-family="Arial" font-size="18.75" lengthAdjust="spacing" textLength="128.125" x="882.0313" y="350.5447">pour la s&#233;ance</text><polygon fill="#181818" points="888.2813,394.8288,872.6563,401.0788,888.2813,407.3288,882.0313,401.0788" style="stroke:#181818;stroke-width:1.5625;"/><line style="stroke:#181818;stroke-width:1.5625;stroke-dasharray:2.0,2.0;" x1="878.9063" x2="1160.1563" y1="401.0788" y2="401.0788"/><text fill="#000000" font-family="Arial" font-size="18.75" lengthAdjust="spacing" textLength="192.1875" x="897.6563" y="393.9804">liste candidats inscrits</text><polygon fill="#181818" points="449.2188,438.2645,433.5938,444.5145,449.2188,450.7645,442.9688,444.5145" style="stroke:#181818;stroke-width:1.5625;"/><line style="stroke:#181818;stroke-width:1.5625;stroke-dasharray:2.0,2.0;" x1="439.8438" x2="869.5313" y1="444.5145" y2="444.5145"/><text fill="#000000" font-family="Arial" font-size="18.75" lengthAdjust="spacing" textLength="106.25" x="458.5938" y="437.4161">{candidats[]}</text><polygon fill="#181818" points="97.6563,481.7001,82.0313,487.9501,97.6563,494.2001,91.4063,487.9501" style="stroke:#181818;stroke-width:1.5625;"/><line style="stroke:#181818;stroke-width:1.5625;stroke-dasharray:2.0,2.0;" x1="88.2813" x2="430.4688" y1="487.9501" y2="487.9501"/><text fill="#000000" font-family="Arial" font-size="18.75" lengthAdjust="spacing" textLength="245.3125" x="107.0313" y="480.8517">Afficher liste des participants</text><path d="M15.625,511.3876 L123.4375,511.3876 L123.4375,520.4483 L107.8125,536.0733 L15.625,536.0733 L15.625,511.3876 " fill="#EEEEEE" style="stroke:#000000;stroke-width:2.34375;"/><rect fill="none" height="68.1213" style="stroke:#000000;stroke-width:2.34375;" width="482.0313" x="15.625" y="511.3876"/><text fill="#000000" font-family="Arial" font-size="18.75" font-weight="bold" lengthAdjust="spacing" textLength="37.5" x="39.0625" y="530.5374">loop</text><text fill="#000000" font-family="Arial" font-size="18.75" font-weight="bold" lengthAdjust="spacing" textLength="206.25" x="146.875" y="532.0999">[Pour chaque candidat]</text><polygon fill="#181818" points="413.2813,560.759,428.9063,567.009,413.2813,573.259,419.5313,567.009" style="stroke:#181818;stroke-width:1.5625;"/><line style="stroke:#181818;stroke-width:1.5625;" x1="80.4688" x2="422.6563" y1="567.009" y2="567.009"/><text fill="#000000" font-family="Arial" font-size="18.75" lengthAdjust="spacing" textLength="206.25" x="91.4063" y="559.9106">Cocher pr&#233;sent / absent</text><polygon fill="#181818" points="413.2813,615.1321,428.9063,621.3821,413.2813,627.6321,419.5313,621.3821" style="stroke:#181818;stroke-width:1.5625;"/><line style="stroke:#181818;stroke-width:1.5625;" x1="80.4688" x2="422.6563" y1="621.3821" y2="621.3821"/><text fill="#000000" font-family="Arial" font-size="18.75" lengthAdjust="spacing" textLength="175" x="91.4063" y="614.2838">Cliquer "Enregistrer"</text><polygon fill="#181818" points="852.3438,680.1285,867.9688,686.3785,852.3438,692.6285,858.5938,686.3785" style="stroke:#181818;stroke-width:1.5625;"/><line style="stroke:#181818;stroke-width:1.5625;" x1="432.0313" x2="861.7188" y1="686.3785" y2="686.3785"/><text fill="#000000" font-family="Arial" font-size="18.75" lengthAdjust="spacing" textLength="182.8125" x="442.9688" y="657.7194">POST /api/presences</text><text fill="#000000" font-family="Arial" font-size="18.75" lengthAdjust="spacing" textLength="401.5625" x="442.9688" y="679.2801">{seance_id, presences[{candidat_id, present}]}</text><polygon fill="#181818" points="1142.9688,745.1248,1158.5938,751.3748,1142.9688,757.6248,1149.2188,751.3748" style="stroke:#181818;stroke-width:1.5625;"/><line style="stroke:#181818;stroke-width:1.5625;" x1="871.0938" x2="1152.3438" y1="751.3748" y2="751.3748"/><text fill="#000000" font-family="Arial" font-size="18.75" lengthAdjust="spacing" textLength="192.1875" x="882.0313" y="722.7158">Enregistrer pr&#233;sences</text><text fill="#000000" font-family="Arial" font-size="18.75" lengthAdjust="spacing" textLength="253.125" x="882.0313" y="744.2764">(pr&#233;sent/absent par candidat)</text><polygon fill="#181818" points="888.2813,788.5605,872.6563,794.8105,888.2813,801.0605,882.0313,794.8105" style="stroke:#181818;stroke-width:1.5625;"/><line style="stroke:#181818;stroke-width:1.5625;stroke-dasharray:2.0,2.0;" x1="878.9063" x2="1160.1563" y1="794.8105" y2="794.8105"/><text fill="#000000" font-family="Arial" font-size="18.75" lengthAdjust="spacing" textLength="20.3125" x="897.6563" y="787.7121">ok</text><polygon fill="#181818" points="1142.9688,853.5568,1158.5938,859.8068,1142.9688,866.0568,1149.2188,859.8068" style="stroke:#181818;stroke-width:1.5625;"/><line style="stroke:#181818;stroke-width:1.5625;" x1="871.0938" x2="1152.3438" y1="859.8068" y2="859.8068"/><text fill="#000000" font-family="Arial" font-size="18.75" lengthAdjust="spacing" textLength="243.75" x="882.0313" y="831.1478">Recalculer taux de pr&#233;sence</text><text fill="#000000" font-family="Arial" font-size="18.75" lengthAdjust="spacing" textLength="228.125" x="882.0313" y="852.7084">et progression par module</text><polygon fill="#181818" points="888.2813,896.9925,872.6563,903.2425,888.2813,909.4925,882.0313,903.2425" style="stroke:#181818;stroke-width:1.5625;"/><line style="stroke:#181818;stroke-width:1.5625;stroke-dasharray:2.0,2.0;" x1="878.9063" x2="1160.1563" y1="903.2425" y2="903.2425"/><text fill="#000000" font-family="Arial" font-size="18.75" lengthAdjust="spacing" textLength="206.25" x="897.6563" y="896.1441">progression mise &#224; jour</text><polygon fill="#181818" points="449.2188,940.4282,433.5938,946.6782,449.2188,952.9282,442.9688,946.6782" style="stroke:#181818;stroke-width:1.5625;"/><line style="stroke:#181818;stroke-width:1.5625;stroke-dasharray:2.0,2.0;" x1="439.8438" x2="869.5313" y1="946.6782" y2="946.6782"/><text fill="#000000" font-family="Arial" font-size="18.75" lengthAdjust="spacing" textLength="207.8125" x="458.5938" y="939.5798">200 OK {taux_presence}</text><polygon fill="#181818" points="97.6563,983.8638,82.0313,990.1138,97.6563,996.3638,91.4063,990.1138" style="stroke:#181818;stroke-width:1.5625;"/><line style="stroke:#181818;stroke-width:1.5625;stroke-dasharray:2.0,2.0;" x1="88.2813" x2="430.4688" y1="990.1138" y2="990.1138"/><text fill="#000000" font-family="Arial" font-size="18.75" lengthAdjust="spacing" textLength="314.0625" x="107.0313" y="983.0154">"Pr&#233;sences enregistr&#233;es (taux : X%)"</text><path d="M992.1875,1010.4263 L992.1875,1068.2388 L1329.6875,1068.2388 L1329.6875,1026.0513 L1314.0625,1010.4263 L992.1875,1010.4263 " fill="#FEFFDD" style="stroke:#181818;stroke-width:0.78125;"/><path d="M1314.0625,1010.4263 L1314.0625,1026.0513 L1329.6875,1026.0513 L1314.0625,1010.4263 " fill="#FEFFDD" style="stroke:#181818;stroke-width:0.78125;"/><text fill="#000000" font-family="Arial" font-size="18.75" lengthAdjust="spacing" textLength="304.6875" x="1001.5625" y="1035.8261">La progression de chaque candidat</text><text fill="#000000" font-family="Arial" font-size="18.75" lengthAdjust="spacing" textLength="284.375" x="1001.5625" y="1057.3868">est mise &#224; jour automatiquement</text><!--SRC=[RLJRRjD047tVhnX5GaeaAYULUEa3KfmB3nGQI0L83QgcwqsoPBDhTjVG4aNY8_W0NlqT_XE-X5cxTcnedXpFcJFdd9d4Iwy4J2LkBExt0X81ooB_cWdD1Vpv-Gi-e989UcaqrHoajiXTA3heputTenUP7J3cTbAdI1o4McEc_Dne_nQ9SMmbggVhI_b3mEYyNKmbZ5uCMs_kaEysrcGwcHXbB7pSIYzQTISgiMDhpVVhhUGxBPo3qHEG1LelkKnH-zZOHDYACLOqWZ7adhxq6bCzG0TpbfwQg6X9jT39IlV7UfCfj8CADklYOcAiOBFxr9AU2XR_1tDbuedHkiY58_oRX-MxomezZHcRmzbBOeSB67DUvAGPYj-W45oH8rbQQU61Aqa6INkvAteuBQd7g9aeua3nQdOD4QOoSYBqkkXGFTpAv1X9xRYLth6uR9Z6rF2-o7cM5habJYMT5-K9rCYLJarcMs8ODPtLmoeyHvs4ypbrbVorgKDJl_byBAM6Id2xNak-xOnj9USOKyQai0Zp-HR9VJE90NrEiKrCIVEOY8S8y2uyC5fFEzv9dU5CMx6XeUIv4zxYQlcONbXe6UvAdm9y3ithcyPLwxq_ai5MjAqnhNNH0THAeqfdiDru6tGIDhlEhWH7nJD5V1wp-t1M3Mzv9Qarct2AuPSSIFSc8NI7iGtPIxfDkhKlb75dP-V38LozXaEOSbkRxYoljpZzIOZQPxXlw9VIBk3Jiq6FCMrejUORAIuTN69701duPxLam_cECC3C6_gvXjtjmrR_0W00]--></g></svg>