<?xml version="1.0" encoding="us-ascii" standalone="no"?><svg xmlns="http://www.w3.org/2000/svg" xmlns:xlink="http://www.w3.org/1999/xlink" contentStyleType="text/css" height="265.7813px" preserveAspectRatio="none" style="width:729px;height:265px;background:#FFFFFF;" version="1.1" viewBox="0 0 729 265" width="729.5313px" zoomAndPan="magnify"><defs/><g><text fill="#000000" font-family="Arial" font-size="15.3125" font-weight="bold" lengthAdjust="spacing" textLength="518.4375" x="98.4" y="25.3004">Diagramme de cas d'utilisation &#8212; Candidat ISET / Utilisateur externe</text><!--entity USER--><g id="elem_USER"><ellipse cx="85.3125" cy="125.3423" fill="#FFFFFF" rx="8.75" ry="8.75" style="stroke:#000000;stroke-width:0.546875;"/><path d="M85.3125,134.0923 L85.3125,163.6235 M71.0938,142.8423 L99.5313,142.8423 M85.3125,163.6235 L71.0938,180.0298 M85.3125,163.6235 L99.5313,180.0298 " fill="none" style="stroke:#000000;stroke-width:0.546875;"/><text fill="#000000" font-family="Arial" font-size="13.125" lengthAdjust="spacing" textLength="141.0938" x="14.7656" y="193.9815">Candidat ISET / Externe</text></g><g id="elem_AUTH"><ellipse cx="661.6812" cy="154.1004" fill="#FFFFFF" rx="62.3062" ry="15.0862" style="stroke:#000000;stroke-width:0.546875;"/><text fill="#000000" font-family="Arial" font-size="13.125" lengthAdjust="spacing" textLength="77.6563" x="622.8531" y="156.6777">S'authentifier</text></g><g id="elem_UC1"><ellipse cx="379.7905" cy="75.8472" fill="#FFFFFF" rx="130.4155" ry="28.7081" style="stroke:#000000;stroke-width:0.546875;"/><text fill="#000000" font-family="Arial" font-size="13.125" lengthAdjust="spacing" textLength="229.6875" x="264.9468" y="78.4246">Consulter le catalogue des formations</text></g><g id="elem_UC1_1"><ellipse cx="85.5424" cy="75.4039" fill="#FFFFFF" rx="78.9799" ry="18.421" style="stroke:#000000;stroke-width:0.546875;"/><text fill="#000000" font-family="Arial" font-size="13.125" lengthAdjust="spacing" textLength="118.125" x="26.4799" y="77.9812">Filtrer par sp&#233;cialit&#233;</text></g><g id="elem_UC2"><ellipse cx="379.3439" cy="154.1798" fill="#FFFFFF" rx="128.3282" ry="28.2906" style="stroke:#000000;stroke-width:0.546875;"/><text fill="#000000" font-family="Arial" font-size="13.125" lengthAdjust="spacing" textLength="225.3125" x="266.6876" y="156.7571">Soumettre une demande d'inscription</text></g><g id="elem_UC3"><ellipse cx="379.6662" cy="232.2286" fill="#FFFFFF" rx="122.0881" ry="27.0426" style="stroke:#000000;stroke-width:0.546875;"/><text fill="#000000" font-family="Arial" font-size="13.125" lengthAdjust="spacing" textLength="212.1875" x="273.5725" y="234.806">Consulter mes formations inscrites</text></g><!--link USER to UC1--><g id="link_USER_UC1"><path d="M155.9797,137.2313 C198.6688,125.3969 253.4875,110.2048 298.025,97.8673 " fill="none" id="USER-UC1" style="stroke:#181818;stroke-width:1.09375;"/></g><!--link USER to UC2--><g id="link_USER_UC2"><path d="M155.9797,155.9891 C184.4938,155.7813 218.4219,155.5298 251.0813,155.2782 " fill="none" id="USER-UC2" style="stroke:#181818;stroke-width:1.09375;"/></g><!--link USER to UC3--><g id="link_USER_UC3"><path d="M155.9797,174.4954 C199.1719,185.6516 254.7891,200.0235 299.6,211.6063 " fill="none" id="USER-UC3" style="stroke:#181818;stroke-width:1.09375;"/></g><!--link UC1 to AUTH--><g id="link_UC1_AUTH"><path d="M461.3109,97.7907 C498.9688,108.2251 544.3813,120.8688 585.1563,132.4516 C596.7063,135.7329 602.9265,137.5156 614.4,140.8406 " fill="none" id="UC1-to-AUTH" style="stroke:#181818;stroke-width:1.09375;stroke-dasharray:7.0,7.0;"/><polygon fill="#181818" points="620.7031,142.6673,612.4662,135.7252,615.4505,141.145,610.0306,144.1294,620.7031,142.6673" style="stroke:#181818;stroke-width:1.09375;"/><text fill="#000000" font-family="Arial" font-size="13.125" lengthAdjust="spacing" textLength="59.0625" x="525" y="113.044">&#171;include&#187;</text></g><!--link UC2 to AUTH--><g id="link_UC2_AUTH"><path d="M508.3313,154.3266 C539.9187,154.3266 565.7859,154.3266 592.5609,154.3266 " fill="none" id="UC2-to-AUTH" style="stroke:#181818;stroke-width:1.09375;stroke-dasharray:7.0,7.0;"/><polygon fill="#181818" points="599.1234,154.3266,589.2797,149.9516,593.6547,154.3266,589.2797,158.7016,599.1234,154.3266" style="stroke:#181818;stroke-width:1.09375;"/><text fill="#000000" font-family="Arial" font-size="13.125" lengthAdjust="spacing" textLength="59.0625" x="525" y="151.3252">&#171;include&#187;</text></g><!--link UC3 to AUTH--><g id="link_UC3_AUTH"><path d="M457.4281,211.3438 C495.8297,200.9532 542.9922,188.0579 585.1563,176.2016 C596.7172,172.9532 602.9375,171.1814 614.4109,167.8564 " fill="none" id="UC3-to-AUTH" style="stroke:#181818;stroke-width:1.09375;stroke-dasharray:7.0,7.0;"/><polygon fill="#181818" points="620.7141,166.0298,610.0416,164.5676,615.4614,167.552,612.4771,172.9718,620.7141,166.0298" style="stroke:#181818;stroke-width:1.09375;"/><text fill="#000000" font-family="Arial" font-size="13.125" lengthAdjust="spacing" textLength="59.0625" x="525" y="173.2002">&#171;include&#187;</text></g><!--link UC1_1 to UC1--><g id="link_UC1_1_UC1"><path d="M164.2813,75.5766 C190.3891,75.5766 213.675,75.5766 242.6375,75.5766 " fill="none" id="UC1_1-to-UC1" style="stroke:#181818;stroke-width:1.09375;stroke-dasharray:7.0,7.0;"/><polygon fill="#181818" points="249.2,75.5766,239.3563,71.2016,243.7313,75.5766,239.3563,79.9516,249.2,75.5766" style="stroke:#181818;stroke-width:1.09375;"/><text fill="#000000" font-family="Arial" font-size="13.125" lengthAdjust="spacing" textLength="54.6875" x="179.375" y="72.5752">&#171;extend&#187;</text></g><!--SRC=[hLDBQkD04DttAGfll8h7LWW38HWInI7PP175p79er6MxSAjRL5T3FWpC8UOIEKTkafDCjnHZ9JYxQ2FntgjNhxfQGc8HBaclMJSDWa6eTG0pZaAMWXRo3jx-_eDIEqD62znKYtlu0Sjt7YC3FWYoGwKihWJ40zDw8s28iSu6IeLQfpRJoKyLjkHQdPg1QGbc9zC1eclnNCcZpJbMEbePodlaoZkvrIdfEPEsX_cAdX1cnO1qtc305efXEzPksu4dQe36WEa449uLfET2rzir- -XCwQrd-BKXmPxnR91xzC8cMOVczaFip-VnlirNzNQZpujPzCiOGLhZibhSARMRQ5IDTPGDEg4L8NUAy-NzzLvGUXVI6IA3pVT0jFNhc9SHOEMvwMv3w9tBsRxiYgnmAafZGcXVN-gq6PBNbvtozq1R-TYW93b4bvsR53-zn-H2pTJc3kzbnQ5SpOSeq5S9xa8TAvLdXgEZBk7-knXyPr4vWybateqFft1sHgwsqU1ydgZYQ-huAqfrOtPiziva_YkSITn_]--></g></svg>