<?xml version="1.0" encoding="us-ascii" standalone="no"?><svg xmlns="http://www.w3.org/2000/svg" xmlns:xlink="http://www.w3.org/1999/xlink" contentStyleType="text/css" height="1860px" preserveAspectRatio="none" style="width:1667px;height:1860px;background:#FFFFFF;" version="1.1" viewBox="0 0 1667 1860" width="1667.5px" zoomAndPan="magnify"><defs/><g><text fill="#000000" font-family="Arial" font-size="35" font-weight="bold" lengthAdjust="spacing" textLength="837.5" x="418.75" y="70.3296">Diagramme de S&#233;quence &#8212; Messagerie interne</text><line style="stroke:#181818;stroke-width:1.25;stroke-dasharray:5.0,5.0;" x1="82.5" x2="82.5" y1="286.8689" y2="1669.3152"/><line style="stroke:#181818;stroke-width:1.25;stroke-dasharray:5.0,5.0;" x1="502.5" x2="502.5" y1="286.8689" y2="1669.3152"/><line style="stroke:#181818;stroke-width:1.25;stroke-dasharray:5.0,5.0;" x1="933.75" x2="933.75" y1="286.8689" y2="1669.3152"/><line style="stroke:#181818;stroke-width:1.25;stroke-dasharray:5.0,5.0;" x1="1367.5" x2="1367.5" y1="286.8689" y2="1669.3152"/><line style="stroke:#181818;stroke-width:1.25;stroke-dasharray:5.0,5.0;" x1="1585" x2="1585" y1="286.8689" y2="1669.3152"/><text fill="#000000" font-family="Arial" font-size="27.5" lengthAdjust="spacing" textLength="127.5" x="12.5" y="281.0413">Exp&#233;diteur</text><ellipse cx="83.75" cy="126.4966" fill="#E2E2F0" rx="20" ry="20" style="stroke:#181818;stroke-width:1.25;"/><path d="M83.75,146.4966 L83.75,213.9966 M51.25,166.4966 L116.25,166.4966 M83.75,213.9966 L51.25,251.4966 M83.75,213.9966 L116.25,251.4966 " fill="none" style="stroke:#181818;stroke-width:1.25;"/><text fill="#000000" font-family="Arial" font-size="27.5" lengthAdjust="spacing" textLength="127.5" x="12.5" y="1692.6099">Exp&#233;diteur</text><ellipse cx="83.75" cy="1719.6875" fill="#E2E2F0" rx="20" ry="20" style="stroke:#181818;stroke-width:1.25;"/><path d="M83.75,1739.6875 L83.75,1807.1875 M51.25,1759.6875 L116.25,1759.6875 M83.75,1807.1875 L51.25,1844.6875 M83.75,1807.1875 L116.25,1844.6875 " fill="none" style="stroke:#181818;stroke-width:1.25;"/><rect fill="#FFFFFF" height="66.6223" rx="6.25" ry="6.25" style="stroke:#000000;stroke-width:1.25;" width="142.5" x="432.5" y="217.7466"/><text fill="#000000" font-family="Arial" font-size="27.5" lengthAdjust="spacing" textLength="107.5" x="450" y="261.0413">Frontend</text><rect fill="#FFFFFF" height="66.6223" rx="6.25" ry="6.25" style="stroke:#000000;stroke-width:1.25;" width="142.5" x="432.5" y="1666.8152"/><text fill="#000000" font-family="Arial" font-size="27.5" lengthAdjust="spacing" textLength="107.5" x="450" y="1710.1099">Frontend</text><rect fill="#FFFFFF" height="66.6223" rx="6.25" ry="6.25" style="stroke:#000000;stroke-width:1.25;" width="140" x="863.75" y="217.7466"/><text fill="#000000" font-family="Arial" font-size="27.5" lengthAdjust="spacing" textLength="105" x="881.25" y="261.0413">Backend</text><rect fill="#FFFFFF" height="66.6223" rx="6.25" ry="6.25" style="stroke:#000000;stroke-width:1.25;" width="140" x="863.75" y="1666.8152"/><text fill="#000000" font-family="Arial" font-size="27.5" lengthAdjust="spacing" textLength="105" x="881.25" y="1710.1099">Backend</text><text fill="#000000" font-family="Arial" font-size="27.5" lengthAdjust="spacing" textLength="212.5" x="1255" y="281.0413">Base de donn&#233;es</text><path d="M1323.75,165.2466 C1323.75,140.2466 1368.75,140.2466 1368.75,140.2466 C1368.75,140.2466 1413.75,140.2466 1413.75,165.2466 L1413.75,230.2466 C1413.75,255.2466 1368.75,255.2466 1368.75,255.2466 C1368.75,255.2466 1323.75,255.2466 1323.75,230.2466 L1323.75,165.2466 " fill="#E2E2F0" style="stroke:#181818;stroke-width:3.75;"/><path d="M1323.75,165.2466 C1323.75,190.2466 1368.75,190.2466 1368.75,190.2466 C1368.75,190.2466 1413.75,190.2466 1413.75,165.2466 " fill="none" style="stroke:#181818;stroke-width:3.75;"/><text fill="#000000" font-family="Arial" font-size="27.5" lengthAdjust="spacing" textLength="212.5" x="1255" y="1692.6099">Base de donn&#233;es</text><path d="M1323.75,1723.4375 C1323.75,1698.4375 1368.75,1698.4375 1368.75,1698.4375 C1368.75,1698.4375 1413.75,1698.4375 1413.75,1723.4375 L1413.75,1788.4375 C1413.75,1813.4375 1368.75,1813.4375 1368.75,1813.4375 C1368.75,1813.4375 1323.75,1813.4375 1323.75,1788.4375 L1323.75,1723.4375 " fill="#E2E2F0" style="stroke:#181818;stroke-width:3.75;"/><path d="M1323.75,1723.4375 C1323.75,1748.4375 1368.75,1748.4375 1368.75,1748.4375 C1368.75,1748.4375 1413.75,1748.4375 1413.75,1723.4375 " fill="none" style="stroke:#181818;stroke-width:3.75;"/><text fill="#000000" font-family="Arial" font-size="27.5" lengthAdjust="spacing" textLength="142.5" x="1507.5" y="281.0413">Destinataire</text><ellipse cx="1586.25" cy="126.4966" fill="#E2E2F0" rx="20" ry="20" style="stroke:#181818;stroke-width:1.25;"/><path d="M1586.25,146.4966 L1586.25,213.9966 M1553.75,166.4966 L1618.75,166.4966 M1586.25,213.9966 L1553.75,251.4966 M1586.25,213.9966 L1618.75,251.4966 " fill="none" style="stroke:#181818;stroke-width:1.25;"/><text fill="#000000" font-family="Arial" font-size="27.5" lengthAdjust="spacing" textLength="142.5" x="1507.5" y="1692.6099">Destinataire</text><ellipse cx="1586.25" cy="1719.6875" fill="#E2E2F0" rx="20" ry="20" style="stroke:#181818;stroke-width:1.25;"/><path d="M1586.25,1739.6875 L1586.25,1807.1875 M1553.75,1759.6875 L1618.75,1759.6875 M1586.25,1807.1875 L1553.75,1844.6875 M1586.25,1807.1875 L1618.75,1844.6875 " fill="none" style="stroke:#181818;stroke-width:1.25;"/><polygon fill="#181818" points="473.75,348.4912,498.75,358.4912,473.75,368.4912,483.75,358.4912" style="stroke:#181818;stroke-width:2.5;"/><line style="stroke:#181818;stroke-width:2.5;" x1="83.75" x2="488.75" y1="358.4912" y2="358.4912"/><text fill="#000000" font-family="Arial" font-size="27.5" lengthAdjust="spacing" textLength="360" x="101.25" y="347.6636">Saisir et envoyer un message</text><polygon fill="#181818" points="903.75,415.1135,928.75,425.1135,903.75,435.1135,913.75,425.1135" style="stroke:#181818;stroke-width:2.5;"/><line style="stroke:#181818;stroke-width:2.5;" x1="503.75" x2="918.75" y1="425.1135" y2="425.1135"/><text fill="#000000" font-family="Arial" font-size="27.5" lengthAdjust="spacing" textLength="207.5" x="521.25" y="414.2859">POST /messages</text><polygon fill="#181818" points="1338.75,481.7358,1363.75,491.7358,1338.75,501.7358,1348.75,491.7358" style="stroke:#181818;stroke-width:2.5;"/><line style="stroke:#181818;stroke-width:2.5;" x1="933.75" x2="1353.75" y1="491.7358" y2="491.7358"/><text fill="#000000" font-family="Arial" font-size="27.5" lengthAdjust="spacing" textLength="250" x="951.25" y="480.9082">Enregistrer message</text><polygon fill="#181818" points="961.25,548.3582,936.25,558.3582,961.25,568.3582,951.25,558.3582" style="stroke:#181818;stroke-width:2.5;"/><line style="stroke:#181818;stroke-width:2.5;stroke-dasharray:2.0,2.0;" x1="946.25" x2="1366.25" y1="558.3582" y2="558.3582"/><text fill="#000000" font-family="Arial" font-size="27.5" lengthAdjust="spacing" textLength="37.5" x="976.25" y="547.5305">OK</text><polygon fill="#181818" points="1338.75,614.9805,1363.75,624.9805,1338.75,634.9805,1348.75,624.9805" style="stroke:#181818;stroke-width:2.5;"/><line style="stroke:#181818;stroke-width:2.5;" x1="933.75" x2="1353.75" y1="624.9805" y2="624.9805"/><text fill="#000000" font-family="Arial" font-size="27.5" lengthAdjust="spacing" textLength="352.5" x="951.25" y="614.1528">Cr&#233;er notification destinataire</text><polygon fill="#181818" points="961.25,681.6028,936.25,691.6028,961.25,701.6028,951.25,691.6028" style="stroke:#181818;stroke-width:2.5;"/><line style="stroke:#181818;stroke-width:2.5;stroke-dasharray:2.0,2.0;" x1="946.25" x2="1366.25" y1="691.6028" y2="691.6028"/><text fill="#000000" font-family="Arial" font-size="27.5" lengthAdjust="spacing" textLength="37.5" x="976.25" y="680.7751">OK</text><polygon fill="#181818" points="531.25,748.2251,506.25,758.2251,531.25,768.2251,521.25,758.2251" style="stroke:#181818;stroke-width:2.5;"/><line style="stroke:#181818;stroke-width:2.5;stroke-dasharray:2.0,2.0;" x1="516.25" x2="931.25" y1="758.2251" y2="758.2251"/><text fill="#000000" font-family="Arial" font-size="27.5" lengthAdjust="spacing" textLength="207.5" x="546.25" y="747.3975">Message envoy&#233;</text><polygon fill="#181818" points="111.25,814.8474,86.25,824.8474,111.25,834.8474,101.25,824.8474" style="stroke:#181818;stroke-width:2.5;"/><line style="stroke:#181818;stroke-width:2.5;stroke-dasharray:2.0,2.0;" x1="96.25" x2="501.25" y1="824.8474" y2="824.8474"/><text fill="#000000" font-family="Arial" font-size="27.5" lengthAdjust="spacing" textLength="202.5" x="126.25" y="814.0198">Message affich&#233;</text><polygon fill="#181818" points="531.25,881.4697,506.25,891.4697,531.25,901.4697,521.25,891.4697" style="stroke:#181818;stroke-width:2.5;"/><line style="stroke:#181818;stroke-width:2.5;" x1="516.25" x2="1583.75" y1="891.4697" y2="891.4697"/><text fill="#000000" font-family="Arial" font-size="27.5" lengthAdjust="spacing" textLength="290" x="546.25" y="880.6421">Consulter la messagerie</text><polygon fill="#181818" points="903.75,948.092,928.75,958.092,903.75,968.092,913.75,958.092" style="stroke:#181818;stroke-width:2.5;"/><line style="stroke:#181818;stroke-width:2.5;" x1="503.75" x2="918.75" y1="958.092" y2="958.092"/><text fill="#000000" font-family="Arial" font-size="27.5" lengthAdjust="spacing" textLength="370" x="521.25" y="947.2644">GET /messages/conversations</text><polygon fill="#181818" points="1338.75,1014.7144,1363.75,1024.7144,1338.75,1034.7144,1348.75,1024.7144" style="stroke:#181818;stroke-width:2.5;"/><line style="stroke:#181818;stroke-width:2.5;" x1="933.75" x2="1353.75" y1="1024.7144" y2="1024.7144"/><text fill="#000000" font-family="Arial" font-size="27.5" lengthAdjust="spacing" textLength="307.5" x="951.25" y="1013.8867">R&#233;cup&#233;rer conversations</text><polygon fill="#181818" points="961.25,1081.3367,936.25,1091.3367,961.25,1101.3367,951.25,1091.3367" style="stroke:#181818;stroke-width:2.5;"/><line style="stroke:#181818;stroke-width:2.5;stroke-dasharray:2.0,2.0;" x1="946.25" x2="1366.25" y1="1091.3367" y2="1091.3367"/><text fill="#000000" font-family="Arial" font-size="27.5" lengthAdjust="spacing" textLength="375" x="976.25" y="1080.509">Conversations + badge non lus</text><polygon fill="#181818" points="531.25,1147.959,506.25,1157.959,531.25,1167.959,521.25,1157.959" style="stroke:#181818;stroke-width:2.5;"/><line style="stroke:#181818;stroke-width:2.5;stroke-dasharray:2.0,2.0;" x1="516.25" x2="931.25" y1="1157.959" y2="1157.959"/><text fill="#000000" font-family="Arial" font-size="27.5" lengthAdjust="spacing" textLength="237.5" x="546.25" y="1147.1313">Liste conversations</text><polygon fill="#181818" points="1556.25,1214.5813,1581.25,1224.5813,1556.25,1234.5813,1566.25,1224.5813" style="stroke:#181818;stroke-width:2.5;"/><line style="stroke:#181818;stroke-width:2.5;stroke-dasharray:2.0,2.0;" x1="503.75" x2="1571.25" y1="1224.5813" y2="1224.5813"/><text fill="#000000" font-family="Arial" font-size="27.5" lengthAdjust="spacing" textLength="397.5" x="521.25" y="1213.7537">Badge indique messages non lus</text><polygon fill="#181818" points="531.25,1281.2036,506.25,1291.2036,531.25,1301.2036,521.25,1291.2036" style="stroke:#181818;stroke-width:2.5;"/><line style="stroke:#181818;stroke-width:2.5;" x1="516.25" x2="1583.75" y1="1291.2036" y2="1291.2036"/><text fill="#000000" font-family="Arial" font-size="27.5" lengthAdjust="spacing" textLength="267.5" x="546.25" y="1280.376">Ouvrir la conversation</text><polygon fill="#181818" points="903.75,1347.8259,928.75,1357.8259,903.75,1367.8259,913.75,1357.8259" style="stroke:#181818;stroke-width:2.5;"/><line style="stroke:#181818;stroke-width:2.5;" x1="503.75" x2="918.75" y1="1357.8259" y2="1357.8259"/><text fill="#000000" font-family="Arial" font-size="27.5" lengthAdjust="spacing" textLength="265" x="521.25" y="1346.9983">PUT /messages/:id/lire</text><polygon fill="#181818" points="1338.75,1414.4482,1363.75,1424.4482,1338.75,1434.4482,1348.75,1424.4482" style="stroke:#181818;stroke-width:2.5;"/><line style="stroke:#181818;stroke-width:2.5;" x1="933.75" x2="1353.75" y1="1424.4482" y2="1424.4482"/><text fill="#000000" font-family="Arial" font-size="27.5" lengthAdjust="spacing" textLength="367.5" x="951.25" y="1413.6206">Marquer messages comme lus</text><polygon fill="#181818" points="961.25,1481.0706,936.25,1491.0706,961.25,1501.0706,951.25,1491.0706" style="stroke:#181818;stroke-width:2.5;"/><line style="stroke:#181818;stroke-width:2.5;stroke-dasharray:2.0,2.0;" x1="946.25" x2="1366.25" y1="1491.0706" y2="1491.0706"/><text fill="#000000" font-family="Arial" font-size="27.5" lengthAdjust="spacing" textLength="37.5" x="976.25" y="1480.2429">OK</text><polygon fill="#181818" points="531.25,1547.6929,506.25,1557.6929,531.25,1567.6929,521.25,1557.6929" style="stroke:#181818;stroke-width:2.5;"/><line style="stroke:#181818;stroke-width:2.5;stroke-dasharray:2.0,2.0;" x1="516.25" x2="931.25" y1="1557.6929" y2="1557.6929"/><text fill="#000000" font-family="Arial" font-size="27.5" lengthAdjust="spacing" textLength="202.5" x="546.25" y="1546.8652">Badge r&#233;initialis&#233;</text><polygon fill="#181818" points="1556.25,1614.3152,1581.25,1624.3152,1556.25,1634.3152,1566.25,1624.3152" style="stroke:#181818;stroke-width:2.5;"/><line style="stroke:#181818;stroke-width:2.5;stroke-dasharray:2.0,2.0;" x1="503.75" x2="1571.25" y1="1624.3152" y2="1624.3152"/><text fill="#000000" font-family="Arial" font-size="27.5" lengthAdjust="spacing" textLength="232.5" x="521.25" y="1613.4875">Messages affich&#233;s</text><!--SRC=[XLDBZjfG4Do_KxJOHfC1PHFD8jAOJnR9X16UAEiUku4MfX_fzqm-gnmYb-0St2GdITjWU8nGihIhghlArOuSAu8Huq9nlIOe2VBzxcjDKX3y-VKR7YW4N90o0Kia5N8k56YY_kktBgnODcXI4ywnhkB4I_o4DkXU6QlhUCu_2GQ35DmmlEdtapVFMAmMwcifXxxo2b-M72d10nqytglwRqzBBbPYHc5mXVA86hdW3KhCl9QaXubPPIl-Gxzgmc4HxQ4t_hxPxqfxKsiFC43kDcSfz2PgKKdA5fkCBy5cSeTbOrTYn6SCr02XBQ7q8liTXPOnohgT8mgHnTYir48pvtAuUMSBu0vovC0A585awt-GGYsmFXJeZ66yhE4zJlCdk3q2mMKjCieC6OlIWaDKqtP20suwvVH3oXwgMLGG7tdE1KRsOjxF3gz9Ew_7kpeutUzQUuRb2OHpcxeqpCrE4OTUWfsHRQsmSsYtcQPxFqx2tHPUjgIXDNSHTRRV5RKrs4Iz9AMkXoa2h-mkItCc5hIgmqMWZ_RPwCMaOwYPmLahP2dPpgnp7awJaeZJUglSvak7NVJtEKrun-LjrNpj9Dm3ggtHyvx2Dtzti-aVdHmyMgai7EttvN0kPdOk9foQ2Uul]--></g></svg>