<?xml version="1.0" encoding="us-ascii" standalone="no"?><svg xmlns="http://www.w3.org/2000/svg" xmlns:xlink="http://www.w3.org/1999/xlink" contentStyleType="text/css" height="542.5px" preserveAspectRatio="none" style="width:760px;height:542px;background:#FFFFFF;" version="1.1" viewBox="0 0 760 542" width="760.1563px" zoomAndPan="magnify"><defs/><g><text fill="#000000" font-family="Arial" font-size="15.3125" font-weight="bold" lengthAdjust="spacing" textLength="336.875" x="204.4937" y="25.3004">Diagramme de cas d'utilisation &#8212; Formateur</text><!--entity F--><g id="elem_F"><ellipse cx="135.625" cy="55.8891" fill="#FFFFFF" rx="8.75" ry="8.75" style="stroke:#000000;stroke-width:0.546875;"/><path d="M135.625,64.6391 L135.625,94.1704 M121.4063,73.3891 L149.8438,73.3891 M135.625,94.1704 L121.4063,110.5766 M135.625,94.1704 L149.8438,110.5766 " fill="none" style="stroke:#000000;stroke-width:0.546875;"/><text fill="#000000" font-family="Arial" font-size="13.125" lengthAdjust="spacing" textLength="62.3438" x="104.4531" y="124.5284">Formateur</text></g><g id="elem_AUTH"><ellipse cx="692.3062" cy="227.9285" fill="#FFFFFF" rx="62.3062" ry="15.0862" style="stroke:#000000;stroke-width:0.546875;"/><text fill="#000000" font-family="Arial" font-size="13.125" lengthAdjust="spacing" textLength="77.6563" x="653.4781" y="230.5059">S'authentifier</text></g><g id="elem_UC1"><ellipse cx="445.3156" cy="260.0148" fill="#FFFFFF" rx="83.2844" ry="19.2819" style="stroke:#000000;stroke-width:0.546875;"/><text fill="#000000" font-family="Arial" font-size="13.125" lengthAdjust="spacing" textLength="127.9688" x="381.3313" y="262.5921">G&#233;rer ses formations</text></g><g id="elem_UC1_1"><ellipse cx="135.7113" cy="168.0158" fill="#FFFFFF" rx="79.93" ry="18.611" style="stroke:#000000;stroke-width:0.546875;"/><text fill="#000000" font-family="Arial" font-size="13.125" lengthAdjust="spacing" textLength="120.3125" x="75.555" y="170.5931">Cr&#233;er une formation</text></g><g id="elem_UC1_2"><ellipse cx="135.3685" cy="228.1035" fill="#FFFFFF" rx="82.3216" ry="19.0893" style="stroke:#000000;stroke-width:0.546875;"/><text fill="#000000" font-family="Arial" font-size="13.125" lengthAdjust="spacing" textLength="125.7813" x="72.4779" y="230.6808">Modifier sa formation</text></g><g id="elem_UC1_3"><ellipse cx="135.5561" cy="290.266" fill="#FFFFFF" rx="89.6186" ry="20.5487" style="stroke:#000000;stroke-width:0.546875;"/><text fill="#000000" font-family="Arial" font-size="13.125" lengthAdjust="spacing" textLength="142.1875" x="64.4623" y="292.8433">Supprimer sa formation</text></g><g id="elem_UC1_4"><ellipse cx="135.6762" cy="360.5087" fill="#FFFFFF" rx="123.6449" ry="27.354" style="stroke:#000000;stroke-width:0.546875;"/><text fill="#000000" font-family="Arial" font-size="13.125" lengthAdjust="spacing" textLength="215.4688" x="27.9418" y="363.0861">G&#233;rer les modules et le programme</text></g><g id="elem_UC1_5"><ellipse cx="135.4122" cy="438.1122" fill="#FFFFFF" rx="128.8497" ry="28.3949" style="stroke:#000000;stroke-width:0.546875;"/><text fill="#000000" font-family="Arial" font-size="13.125" lengthAdjust="spacing" textLength="226.4063" x="22.2091" y="440.6896">D&#233;poser des supports p&#233;dagogiques</text></g><g id="elem_UC1_6"><ellipse cx="135.801" cy="512.565" fill="#FFFFFF" rx="104.6291" ry="23.5508" style="stroke:#000000;stroke-width:0.546875;"/><text fill="#000000" font-family="Arial" font-size="13.125" lengthAdjust="spacing" textLength="175" x="48.301" y="515.1423">Consulter la liste des inscrits</text></g><g id="elem_UC2"><ellipse cx="445.067" cy="150.2619" fill="#FFFFFF" rx="95.067" ry="21.6384" style="stroke:#000000;stroke-width:0.546875;"/><text fill="#000000" font-family="Arial" font-size="13.125" lengthAdjust="spacing" textLength="154.2188" x="367.9576" y="152.8393">Soumettre &#224; l'approbation</text></g><!--link F to UC1--><g id="link_F_UC1"><path d="M167.3,97.7907 C193.6047,107.3829 232.3125,122.3782 264.6875,138.4673 C324.8,168.3376 388.2922,215.5766 421.225,241.4438 " fill="none" id="F-UC1" style="stroke:#181818;stroke-width:1.09375;"/></g><!--link F to UC2--><g id="link_F_UC2"><path d="M166.8297,87.6735 C206.1938,89.0516 277.0469,93.4923 335.7813,107.8423 C358.3563,113.3548 382.4953,122.5204 402.2484,130.9532 " fill="none" id="F-UC2" style="stroke:#181818;stroke-width:1.09375;"/></g><!--link UC1 to AUTH--><g id="link_UC1_AUTH"><path d="M526.3125,255.5423 C554.6734,253.3766 586.7531,250.2157 615.7813,245.6548 C626.5438,243.9594 631.6542,243.0669 642.3621,240.6059 " fill="none" id="UC1-to-AUTH" style="stroke:#181818;stroke-width:1.09375;stroke-dasharray:7.0,7.0;"/><polygon fill="#181818" points="648.7578,239.136,638.1842,237.077,643.428,240.3609,640.1441,245.6047,648.7578,239.136" style="stroke:#181818;stroke-width:1.09375;"/><text fill="#000000" font-family="Arial" font-size="13.125" lengthAdjust="spacing" textLength="59.0625" x="555.625" y="242.6534">&#171;include&#187;</text></g><!--link UC2 to AUTH--><g id="link_UC2_AUTH"><path d="M501.8453,168.1188 C548.1547,182.7969 606.6055,201.3209 647.1289,214.1725 " fill="none" id="UC2-to-AUTH" style="stroke:#181818;stroke-width:1.09375;stroke-dasharray:7.0,7.0;"/><polygon fill="#181818" points="653.3844,216.1563,645.3238,209.0102,648.1715,214.5031,642.6786,217.3508,653.3844,216.1563" style="stroke:#181818;stroke-width:1.09375;"/><text fill="#000000" font-family="Arial" font-size="13.125" lengthAdjust="spacing" textLength="59.0625" x="555.625" y="184.6846">&#171;include&#187;</text></g><!--link UC1_1 to UC1--><g id="link_UC1_1_UC1"><path d="M195.6391,180.3032 C217.4594,185.2032 242.3094,191.1751 264.6875,197.5298 C296.7781,206.6407 304.2594,210.6876 335.7813,221.5923 C356.5078,228.7673 373.2261,234.645 392.6183,241.5247 " fill="none" id="UC1_1-to-UC1" style="stroke:#181818;stroke-width:1.09375;stroke-dasharray:7.0,7.0;"/><polygon fill="#181818" points="398.8031,243.7188,390.9887,236.3044,393.6491,241.8903,388.0631,244.5508,398.8031,243.7188" style="stroke:#181818;stroke-width:1.09375;"/><text fill="#000000" font-family="Arial" font-size="13.125" lengthAdjust="spacing" textLength="54.6875" x="280" y="199.9971">&#171;extend&#187;</text></g><!--link UC1_2 to UC1--><g id="link_UC1_2_UC1"><path d="M211.5094,235.8766 C259.3063,240.8094 314.5424,246.5132 362.4049,251.446 " fill="none" id="UC1_2-to-UC1" style="stroke:#181818;stroke-width:1.09375;stroke-dasharray:7.0,7.0;"/><polygon fill="#181818" points="368.9328,252.1188,359.5895,246.7577,363.4929,251.5582,358.6924,255.4616,368.9328,252.1188" style="stroke:#181818;stroke-width:1.09375;"/><text fill="#000000" font-family="Arial" font-size="13.125" lengthAdjust="spacing" textLength="54.6875" x="280" y="240.4659">&#171;extend&#187;</text></g><!--link UC1_3 to UC1--><g id="link_UC1_3_UC1"><path d="M219.5594,283.0829 C255.325,279.8016 297.6203,275.8094 335.7813,271.9048 C346.8828,270.7673 352.0953,270.2349 363.5796,268.977 " fill="none" id="UC1_3-to-UC1" style="stroke:#181818;stroke-width:1.09375;stroke-dasharray:7.0,7.0;"/><polygon fill="#181818" points="370.1031,268.2626,359.8416,264.9853,364.6669,268.858,360.7942,273.6833,370.1031,268.2626" style="stroke:#181818;stroke-width:1.09375;"/><text fill="#000000" font-family="Arial" font-size="13.125" lengthAdjust="spacing" textLength="54.6875" x="280" y="268.9034">&#171;extend&#187;</text></g><!--link UC1_4 to UC1--><g id="link_UC1_4_UC1"><path d="M211.2906,338.7876 C248.8281,327.5548 294.9078,313.2813 335.7813,299.2485 C357.1641,291.9094 374.6076,285.6423 394.3061,278.4017 " fill="none" id="UC1_4-to-UC1" style="stroke:#181818;stroke-width:1.09375;stroke-dasharray:7.0,7.0;"/><polygon fill="#181818" points="400.4656,276.1376,389.7169,275.4273,395.3327,278.0243,392.7357,283.6401,400.4656,276.1376" style="stroke:#181818;stroke-width:1.09375;"/><text fill="#000000" font-family="Arial" font-size="13.125" lengthAdjust="spacing" textLength="54.6875" x="280" y="296.2471">&#171;extend&#187;</text></g><!--link UC1_5 to UC1--><g id="link_UC1_5_UC1"><path d="M221.3969,416.8485 C236.1953,411.7954 251.1688,405.7907 264.6875,398.7798 C329.0109,365.3985 388.7624,312.7474 419.978,283.238 " fill="none" id="UC1_5-to-UC1" style="stroke:#181818;stroke-width:1.09375;stroke-dasharray:7.0,7.0;"/><polygon fill="#181818" points="424.7469,278.7298,414.5881,282.3128,420.7728,282.4866,420.599,288.6714,424.7469,278.7298" style="stroke:#181818;stroke-width:1.09375;"/><text fill="#000000" font-family="Arial" font-size="13.125" lengthAdjust="spacing" textLength="54.6875" x="280" y="353.1221">&#171;extend&#187;</text></g><!--link UC1_6 to UC1--><g id="link_UC1_6_UC1"><path d="M215.5125,497.3376 C232.3344,492.3829 249.5828,485.9079 264.6875,477.5298 C350.7656,429.8094 409.2614,328.6909 431.7052,284.93 " fill="none" id="UC1_6-to-UC1" style="stroke:#181818;stroke-width:1.09375;stroke-dasharray:7.0,7.0;"/><polygon fill="#181818" points="434.7,279.0907,426.3149,285.8531,432.2043,283.9568,434.1006,289.8462,434.7,279.0907" style="stroke:#181818;stroke-width:1.09375;"/><text fill="#000000" font-family="Arial" font-size="13.125" lengthAdjust="spacing" textLength="54.6875" x="280" y="424.2159">&#171;extend&#187;</text></g><!--SRC=[hL9BRjim4Dtp50Dll8eHEt4A5861n87RJRjnWou3LXpRX2bI7Gw1Vb2WX-W1klKvT9EUf2EgiOdMsbKRYk-z-RmPicM7y63rbdHT8nY4IaSmuyJMsQZP1W-_ll-0LQ1QCoPIok66WGEGtUuOZ2MiEfbIiTAIx7BoGiMzzOsMb60Q2zFvPO7eYWEj-RFhgcrqSbpAUsGLFB_LqiyTMUtEyslx1M4wAqWV34PiO5QM8-tt6Poh0aqHnIV2LmNotUjglwMGl5a65mZUxonZpmGoI3rwxqIMqQvyYNtxszv_owlwTAFZ-4SWwrafzMnWj1xhn3lqR3SMU_hkyTtha-1LUo0aY1XXaxF8hcBMFIwd9zcIseF8aiUJx5drLEZU19ChGTHdXBEYiTGqPEiXvTK_7Jhfi0ucTIUoNA6XqB_BOzJrAUgXFJGXIfmi7Q8K2yGHclPWz3PixSU4HvTFyyAdk9SNrDNJ84-SCIUmFbPa-HHoKpW9gKPcGcX_WXjhyHK-b6vcIgtWuY8FzC-FG7A3oMIHrm4luVRM-iebWuk5KBCXIkLvPxPBq97uYT6R72OJ7gQkXgdhOMe-JDsSftu3]--></g></svg>